<svg xmlns="http://www.w3.org/2000/svg" viewBox="0 0 512 512"><!--! Font Awesome Pro 6.2.1 by @fontawesome - https://fontawesome.com License - https://fontawesome.com/license (Commercial License) Copyright 2022 Fonticons, Inc. -->
<!--Begin Apple Gradient-->
            <defs>
                <linearGradient id="Gradient1" x2="100%" y2="100%">
                    <stop offset="0%" stop-color="#fbf5b7" />
                    <stop offset="40%" stop-color="#b38728" />
                    <stop offset="60%" stop-color="#bf953f" />
                    <stop offset="100%" stop-color="#272c65" />
                </linearGradient>
            </defs>
            <!--End Apple Gradient-->
<path fill="none" stroke="url(#Gradient1)" stroke-width="30" d="M498.1 5.6c10.1 7 15.4 19.1 13.5 31.2l-64 416c-1.5 9.7-7.4 18.2-16 23s-18.9 5.4-28 1.6L284 427.7l-68.5 74.1c-8.9 9.7-22.9 12.9-35.2 8.1S160 493.2 160 480V396.4c0-4 1.5-7.8 4.2-10.7L331.8 202.8c5.8-6.3 5.6-16-.4-22s-15.7-6.4-22-.7L106 360.8 17.7 316.6C7.1 311.3 .3 300.7 0 288.9s5.9-22.8 16.1-28.7l448-256c10.7-6.1 23.9-5.5 34 1.4z"/></svg>